<svg xmlns="http://www.w3.org/2000/svg" xmlns:xlink="http://www.w3.org/1999/xlink" width="2000" zoomAndPan="magnify" viewBox="0 0 1500 374.999991" height="500" preserveAspectRatio="xMidYMid meet" version="1.0"><defs><g/><clipPath id="9b5e87225e"><path d="M 103.742188 36.699219 L 403.742188 36.699219 L 403.742188 336.699219 L 103.742188 336.699219 Z M 103.742188 36.699219 " clip-rule="nonzero"/></clipPath><clipPath id="567677a95f"><path d="M 120.992188 36.699219 L 386.492188 36.699219 C 391.066406 36.699219 395.453125 38.515625 398.6875 41.75 C 401.921875 44.984375 403.742188 49.375 403.742188 53.949219 L 403.742188 319.449219 C 403.742188 324.023438 401.921875 328.410156 398.6875 331.644531 C 395.453125 334.882812 391.066406 336.699219 386.492188 336.699219 L 120.992188 336.699219 C 116.414062 336.699219 112.027344 334.882812 108.792969 331.644531 C 105.558594 328.410156 103.742188 324.023438 103.742188 319.449219 L 103.742188 53.949219 C 103.742188 49.375 105.558594 44.984375 108.792969 41.75 C 112.027344 38.515625 116.414062 36.699219 120.992188 36.699219 Z M 120.992188 36.699219 " clip-rule="nonzero"/></clipPath></defs><rect x="-150" width="1800" fill="#ffffff" y="-37.499999" height="449.999989" fill-opacity="1"/><rect x="-150" width="1800" fill="#ffffff" y="-37.499999" height="449.999989" fill-opacity="1"/><g fill="#000000" fill-opacity="1"><g transform="translate(437.923574, 279.901782)"><g><path d="M 119.984375 -135.8125 C 119.242188 -143.320312 116.03125 -149.15625 110.34375 -153.3125 C 104.664062 -157.46875 97.019531 -159.546875 87.40625 -159.546875 C 77.539062 -159.546875 69.96875 -157.523438 64.6875 -153.484375 C 59.414062 -149.453125 56.78125 -144.367188 56.78125 -138.234375 C 56.65625 -131.398438 59.585938 -126.226562 65.578125 -122.71875 C 71.566406 -119.21875 78.6875 -116.507812 86.9375 -114.59375 L 104.0625 -110.484375 C 115.113281 -108.003906 124.9375 -104.40625 133.53125 -99.6875 C 142.125 -94.976562 148.882812 -88.914062 153.8125 -81.5 C 158.75 -74.082031 161.21875 -65.066406 161.21875 -54.453125 C 161.15625 -37.015625 154.625 -23.128906 141.625 -12.796875 C 128.625 -2.460938 110.488281 2.703125 87.21875 2.703125 C 64.070312 2.703125 45.609375 -2.570312 31.828125 -13.125 C 18.054688 -23.675781 10.921875 -39.253906 10.421875 -59.859375 L 49.421875 -59.859375 C 50.109375 -50.296875 53.878906 -43.109375 60.734375 -38.296875 C 67.585938 -33.492188 76.257812 -31.09375 86.75 -31.09375 C 96.988281 -31.09375 105.164062 -33.265625 111.28125 -37.609375 C 117.394531 -41.953125 120.484375 -47.597656 120.546875 -54.546875 C 120.484375 -61.003906 117.660156 -65.96875 112.078125 -69.4375 C 106.492188 -72.914062 98.519531 -75.894531 88.15625 -78.375 L 67.390625 -83.59375 C 51.316406 -87.4375 38.625 -93.546875 29.3125 -101.921875 C 20.007812 -110.304688 15.390625 -121.507812 15.453125 -135.53125 C 15.390625 -147.070312 18.472656 -157.171875 24.703125 -165.828125 C 30.941406 -174.484375 39.519531 -181.21875 50.4375 -186.03125 C 61.363281 -190.84375 73.78125 -193.25 87.6875 -193.25 C 101.832031 -193.25 114.195312 -190.828125 124.78125 -185.984375 C 135.363281 -181.140625 143.601562 -174.40625 149.5 -165.78125 C 155.394531 -157.15625 158.429688 -147.164062 158.609375 -135.8125 Z M 119.984375 -135.8125 "/></g></g></g><g fill="#000000" fill-opacity="1"><g transform="translate(609.568987, 279.901782)"><g><path d="M 80.421875 2.796875 C 65.960938 2.796875 53.472656 -0.289062 42.953125 -6.46875 C 32.441406 -12.644531 24.328125 -21.269531 18.609375 -32.34375 C 12.898438 -43.425781 10.046875 -56.289062 10.046875 -70.9375 C 10.046875 -85.695312 12.898438 -98.613281 18.609375 -109.6875 C 24.328125 -120.769531 32.441406 -129.398438 42.953125 -135.578125 C 53.472656 -141.753906 65.960938 -144.84375 80.421875 -144.84375 C 94.878906 -144.84375 107.367188 -141.753906 117.890625 -135.578125 C 128.410156 -129.398438 136.523438 -120.769531 142.234375 -109.6875 C 147.941406 -98.613281 150.796875 -85.695312 150.796875 -70.9375 C 150.796875 -56.289062 147.941406 -43.425781 142.234375 -32.34375 C 136.523438 -21.269531 128.410156 -12.644531 117.890625 -6.46875 C 107.367188 -0.289062 94.878906 2.796875 80.421875 2.796875 Z M 80.609375 -27.921875 C 90.410156 -27.921875 97.835938 -32.015625 102.890625 -40.203125 C 107.953125 -48.398438 110.484375 -58.734375 110.484375 -71.203125 C 110.484375 -83.679688 107.953125 -94.03125 102.890625 -102.25 C 97.835938 -110.476562 90.410156 -114.59375 80.609375 -114.59375 C 70.617188 -114.59375 63.078125 -110.476562 57.984375 -102.25 C 52.898438 -94.03125 50.359375 -83.679688 50.359375 -71.203125 C 50.359375 -58.734375 52.898438 -48.398438 57.984375 -40.203125 C 63.078125 -32.015625 70.617188 -27.921875 80.609375 -27.921875 Z M 80.609375 -27.921875 "/></g></g></g><g fill="#000000" fill-opacity="1"><g transform="translate(770.416752, 279.901782)"><g><path d="M 94.015625 -142.984375 L 94.015625 -113.1875 L 65.625 -113.1875 L 65.625 0 L 25.96875 0 L 25.96875 -113.1875 L 5.765625 -113.1875 L 5.765625 -142.984375 L 25.96875 -142.984375 L 25.96875 -153.3125 C 25.96875 -168.882812 30.421875 -180.488281 39.328125 -188.125 C 48.234375 -195.757812 59.421875 -199.578125 72.890625 -199.578125 C 78.960938 -199.578125 84.53125 -199.109375 89.59375 -198.171875 C 94.65625 -197.242188 98.425781 -196.40625 100.90625 -195.65625 L 93.921875 -165.875 C 92.367188 -166.375 90.441406 -166.835938 88.140625 -167.265625 C 85.847656 -167.703125 83.523438 -167.921875 81.171875 -167.921875 C 75.335938 -167.921875 71.285156 -166.570312 69.015625 -163.875 C 66.753906 -161.175781 65.625 -157.40625 65.625 -152.5625 L 65.625 -142.984375 Z M 94.015625 -142.984375 "/></g></g></g><g fill="#000000" fill-opacity="1"><g transform="translate(872.808273, 279.901782)"><g><path d="M 91.875 -142.984375 L 91.875 -113.1875 L 64.96875 -113.1875 L 64.96875 -43.9375 C 64.96875 -38.476562 66.207031 -34.785156 68.6875 -32.859375 C 71.175781 -30.929688 74.40625 -29.96875 78.375 -29.96875 C 80.238281 -29.96875 82.097656 -30.140625 83.953125 -30.484375 C 85.816406 -30.828125 87.25 -31.09375 88.25 -31.28125 L 94.484375 -1.765625 C 92.492188 -1.148438 89.695312 -0.425781 86.09375 0.40625 C 82.5 1.25 78.128906 1.765625 72.984375 1.953125 C 58.578125 2.578125 47.015625 -0.535156 38.296875 -7.390625 C 29.578125 -14.253906 25.25 -24.695312 25.3125 -38.71875 L 25.3125 -113.1875 L 5.765625 -113.1875 L 5.765625 -142.984375 L 25.3125 -142.984375 L 25.3125 -177.234375 L 64.96875 -177.234375 L 64.96875 -142.984375 Z M 91.875 -142.984375 "/></g></g></g><g fill="#000000" fill-opacity="1"><g transform="translate(974.641249, 279.901782)"><g><path d="M 14.515625 0 L 14.515625 -23.921875 L 109.65625 -157.40625 L 14.328125 -157.40625 L 14.328125 -190.640625 L 160.296875 -190.640625 L 160.296875 -166.71875 L 65.0625 -33.234375 L 160.484375 -33.234375 L 160.484375 0 Z M 14.515625 0 "/></g></g></g><g fill="#000000" fill-opacity="1"><g transform="translate(1149.451496, 279.901782)"><g><path d="M 15.828125 0 L 15.828125 -142.984375 L 55.484375 -142.984375 L 55.484375 0 Z M 35.75 -161.40625 C 29.914062 -161.40625 24.882812 -163.375 20.65625 -167.3125 C 16.4375 -171.257812 14.328125 -175.992188 14.328125 -181.515625 C 14.328125 -187.035156 16.4375 -191.75 20.65625 -195.65625 C 24.882812 -199.570312 29.914062 -201.53125 35.75 -201.53125 C 41.632812 -201.53125 46.6875 -199.570312 50.90625 -195.65625 C 55.132812 -191.75 57.25 -187.035156 57.25 -181.515625 C 57.25 -175.992188 55.132812 -171.257812 50.90625 -167.3125 C 46.6875 -163.375 41.632812 -161.40625 35.75 -161.40625 Z M 35.75 -161.40625 "/></g></g></g><g fill="#000000" fill-opacity="1"><g transform="translate(1220.75322, 279.901782)"><g><path d="M 80.234375 55.671875 C 60.992188 55.671875 45.882812 51.882812 34.90625 44.3125 C 23.925781 36.738281 17.253906 27.550781 14.890625 16.75 L 51.5625 11.828125 C 53.175781 15.671875 56.328125 19.191406 61.015625 22.390625 C 65.703125 25.585938 72.421875 27.1875 81.171875 27.1875 C 89.796875 27.1875 96.914062 25.132812 102.53125 21.03125 C 108.144531 16.9375 110.953125 10.207031 110.953125 0.84375 L 110.953125 -25.3125 L 109.28125 -25.3125 C 106.675781 -19.414062 102.082031 -14.0625 95.5 -9.25 C 88.925781 -4.445312 79.929688 -2.046875 68.515625 -2.046875 C 57.773438 -2.046875 48.015625 -4.554688 39.234375 -9.578125 C 30.453125 -14.609375 23.46875 -22.273438 18.28125 -32.578125 C 13.101562 -42.878906 10.515625 -55.941406 10.515625 -71.765625 C 10.515625 -88.023438 13.164062 -101.550781 18.46875 -112.34375 C 23.78125 -123.144531 30.828125 -131.257812 39.609375 -136.6875 C 48.390625 -142.125 57.992188 -144.84375 68.421875 -144.84375 C 76.421875 -144.84375 83.117188 -143.488281 88.515625 -140.78125 C 93.921875 -138.082031 98.296875 -134.75 101.640625 -130.78125 C 104.992188 -126.8125 107.539062 -122.875 109.28125 -118.96875 L 110.765625 -118.96875 L 110.765625 -142.984375 L 150.140625 -142.984375 L 150.140625 1.390625 C 150.140625 13.242188 147.144531 23.203125 141.15625 31.265625 C 135.164062 39.335938 126.925781 45.421875 116.4375 49.515625 C 105.957031 53.617188 93.890625 55.671875 80.234375 55.671875 Z M 81.078125 -31.828125 C 90.628906 -31.828125 98.023438 -35.363281 103.265625 -42.4375 C 108.515625 -49.519531 111.140625 -59.359375 111.140625 -71.953125 C 111.140625 -84.484375 108.53125 -94.503906 103.3125 -102.015625 C 98.101562 -109.523438 90.691406 -113.28125 81.078125 -113.28125 C 71.273438 -113.28125 63.8125 -109.429688 58.6875 -101.734375 C 53.570312 -94.046875 51.015625 -84.117188 51.015625 -71.953125 C 51.015625 -59.609375 53.585938 -49.832031 58.734375 -42.625 C 63.890625 -35.425781 71.335938 -31.828125 81.078125 -31.828125 Z M 81.078125 -31.828125 "/></g></g></g><g clip-path="url(#9b5e87225e)"><g clip-path="url(#567677a95f)"><path fill="#000000" d="M 103.742188 36.699219 L 403.742188 36.699219 L 403.742188 336.699219 L 103.742188 336.699219 Z M 103.742188 36.699219 " fill-opacity="1" fill-rule="nonzero"/></g></g><g fill="#ffffff" fill-opacity="1"><g transform="translate(168.665195, 280.909765)"><g><path d="M 118.9375 -134.625 C 118.195312 -142.0625 115.007812 -147.835938 109.375 -151.953125 C 103.75 -156.078125 96.171875 -158.140625 86.640625 -158.140625 C 76.859375 -158.140625 69.351562 -156.140625 64.125 -152.140625 C 58.894531 -148.148438 56.28125 -143.109375 56.28125 -137.015625 C 56.15625 -130.253906 59.0625 -125.132812 65 -121.65625 C 70.9375 -118.175781 77.992188 -115.484375 86.171875 -113.578125 L 103.15625 -109.515625 C 114.101562 -107.054688 123.835938 -103.488281 132.359375 -98.8125 C 140.878906 -94.144531 147.582031 -88.132812 152.46875 -80.78125 C 157.363281 -73.425781 159.8125 -64.492188 159.8125 -53.984375 C 159.75 -36.691406 153.273438 -22.925781 140.390625 -12.6875 C 127.503906 -2.445312 109.523438 2.671875 86.453125 2.671875 C 63.515625 2.671875 45.21875 -2.554688 31.5625 -13.015625 C 17.90625 -23.472656 10.828125 -38.910156 10.328125 -59.328125 L 49 -59.328125 C 49.675781 -49.859375 53.410156 -42.738281 60.203125 -37.96875 C 67.003906 -33.195312 75.601562 -30.8125 86 -30.8125 C 96.144531 -30.8125 104.242188 -32.960938 110.296875 -37.265625 C 116.359375 -41.578125 119.421875 -47.175781 119.484375 -54.0625 C 119.421875 -60.46875 116.617188 -65.390625 111.078125 -68.828125 C 105.546875 -72.273438 97.644531 -75.226562 87.375 -77.6875 L 66.796875 -82.859375 C 50.867188 -86.671875 38.289062 -92.726562 29.0625 -101.03125 C 19.832031 -109.332031 15.25 -120.4375 15.3125 -134.34375 C 15.25 -145.78125 18.304688 -155.789062 24.484375 -164.375 C 30.671875 -172.957031 39.175781 -179.628906 50 -184.390625 C 60.832031 -189.160156 73.140625 -191.546875 86.921875 -191.546875 C 100.941406 -191.546875 113.195312 -189.144531 123.6875 -184.34375 C 134.175781 -179.550781 142.34375 -172.878906 148.1875 -164.328125 C 154.03125 -155.773438 157.039062 -145.875 157.21875 -134.625 Z M 118.9375 -134.625 "/></g></g></g></svg>