<svg xmlns="http://www.w3.org/2000/svg" xmlns:xlink="http://www.w3.org/1999/xlink" width="500" zoomAndPan="magnify" viewBox="0 0 375 374.999991" height="500" preserveAspectRatio="xMidYMid meet" version="1.0"><defs><g/><clipPath id="11e3e9f157"><path d="M 37.5 37.5 L 337.5 37.5 L 337.5 337.5 L 37.5 337.5 Z M 37.5 37.5 " clip-rule="nonzero"/></clipPath><clipPath id="64fb159e75"><path d="M 54.75 37.5 L 320.25 37.5 C 324.824219 37.5 329.210938 39.316406 332.449219 42.550781 C 335.683594 45.789062 337.5 50.175781 337.5 54.75 L 337.5 320.25 C 337.5 324.824219 335.683594 329.210938 332.449219 332.449219 C 329.210938 335.683594 324.824219 337.5 320.25 337.5 L 54.75 337.5 C 50.175781 337.5 45.789062 335.683594 42.550781 332.449219 C 39.316406 329.210938 37.5 324.824219 37.5 320.25 L 37.5 54.75 C 37.5 50.175781 39.316406 45.789062 42.550781 42.550781 C 45.789062 39.316406 50.175781 37.5 54.75 37.5 Z M 54.75 37.5 " clip-rule="nonzero"/></clipPath></defs><rect x="-37.5" width="450" fill="#ffffff" y="-37.499999" height="449.999989" fill-opacity="1"/><rect x="-37.5" width="450" fill="#ffffff" y="-37.499999" height="449.999989" fill-opacity="1"/><g clip-path="url(#11e3e9f157)"><g clip-path="url(#64fb159e75)"><path fill="#000000" d="M 37.5 37.5 L 337.5 37.5 L 337.5 337.5 L 37.5 337.5 Z M 37.5 37.5 " fill-opacity="1" fill-rule="nonzero"/></g></g><g fill="#ffffff" fill-opacity="1"><g transform="translate(102.424782, 281.711349)"><g><path d="M 118.9375 -134.625 C 118.195312 -142.0625 115.007812 -147.835938 109.375 -151.953125 C 103.75 -156.078125 96.171875 -158.140625 86.640625 -158.140625 C 76.859375 -158.140625 69.351562 -156.140625 64.125 -152.140625 C 58.894531 -148.148438 56.28125 -143.109375 56.28125 -137.015625 C 56.15625 -130.253906 59.0625 -125.132812 65 -121.65625 C 70.9375 -118.175781 77.992188 -115.484375 86.171875 -113.578125 L 103.15625 -109.515625 C 114.101562 -107.054688 123.835938 -103.488281 132.359375 -98.8125 C 140.878906 -94.144531 147.582031 -88.132812 152.46875 -80.78125 C 157.363281 -73.425781 159.8125 -64.492188 159.8125 -53.984375 C 159.75 -36.691406 153.273438 -22.925781 140.390625 -12.6875 C 127.503906 -2.445312 109.523438 2.671875 86.453125 2.671875 C 63.515625 2.671875 45.21875 -2.554688 31.5625 -13.015625 C 17.90625 -23.472656 10.828125 -38.910156 10.328125 -59.328125 L 49 -59.328125 C 49.675781 -49.859375 53.410156 -42.738281 60.203125 -37.96875 C 67.003906 -33.195312 75.601562 -30.8125 86 -30.8125 C 96.144531 -30.8125 104.242188 -32.960938 110.296875 -37.265625 C 116.359375 -41.578125 119.421875 -47.175781 119.484375 -54.0625 C 119.421875 -60.46875 116.617188 -65.390625 111.078125 -68.828125 C 105.546875 -72.273438 97.644531 -75.226562 87.375 -77.6875 L 66.796875 -82.859375 C 50.867188 -86.671875 38.289062 -92.726562 29.0625 -101.03125 C 19.832031 -109.332031 15.25 -120.4375 15.3125 -134.34375 C 15.25 -145.78125 18.304688 -155.789062 24.484375 -164.375 C 30.671875 -172.957031 39.175781 -179.628906 50 -184.390625 C 60.832031 -189.160156 73.140625 -191.546875 86.921875 -191.546875 C 100.941406 -191.546875 113.195312 -189.144531 123.6875 -184.34375 C 134.175781 -179.550781 142.34375 -172.878906 148.1875 -164.328125 C 154.03125 -155.773438 157.039062 -145.875 157.21875 -134.625 Z M 118.9375 -134.625 "/></g></g></g></svg>